<?xml version="1.0" encoding="UTF-8"?>
<svg width="256" height="256" viewBox="0 0 256 256" xmlns="http://www.w3.org/2000/svg">
  <!-- Background Circle with gradient -->
  <defs>
    <linearGradient id="bgGradient" x1="0%" y1="0%" x2="100%" y2="100%">
      <stop offset="0%" style="stop-color:#4f46e5;stop-opacity:1" />
      <stop offset="100%" style="stop-color:#7c3aed;stop-opacity:1" />
    </linearGradient>
    <linearGradient id="glassGradient" x1="0%" y1="0%" x2="100%" y2="100%">
      <stop offset="0%" style="stop-color:#ffffff;stop-opacity:0.3" />
      <stop offset="100%" style="stop-color:#ffffff;stop-opacity:0.1" />
    </linearGradient>
    <filter id="glow">
      <feGaussianBlur stdDeviation="3" result="coloredBlur"/>
      <feMerge> 
        <feMergeNode in="coloredBlur"/>
        <feMergeNode in="SourceGraphic"/>
      </feMerge>
    </filter>
  </defs>
  
  <!-- Main background -->
  <circle cx="128" cy="128" r="120" fill="url(#bgGradient)" />
  
  <!-- Glass overlay -->
  <circle cx="128" cy="128" r="120" fill="url(#glassGradient)" />
  
  <!-- Checklist clipboard icon -->
  <!-- Clipboard base -->
  <rect x="80" y="60" width="96" height="136" rx="8" ry="8" fill="#ffffff" opacity="0.95" />
  <rect x="84" y="64" width="88" height="128" rx="4" ry="4" fill="#f8fafc" />
  
  <!-- Clipboard clip -->
  <rect x="112" y="48" width="32" height="20" rx="4" ry="4" fill="#64748b" />
  <rect x="116" y="52" width="24" height="12" rx="2" ry="2" fill="#ffffff" />
  
  <!-- Task items with checkboxes -->
  <!-- Task 1 - Completed -->
  <rect x="96" y="80" width="16" height="16" rx="3" ry="3" fill="#10b981" />
  <path d="M100 88 L104 92 L112 84" stroke="#ffffff" stroke-width="2" fill="none" stroke-linecap="round" stroke-linejoin="round" />
  <rect x="120" y="82" width="48" height="12" rx="2" ry="2" fill="#d1d5db" />
  
  <!-- Task 2 - Completed -->
  <rect x="96" y="104" width="16" height="16" rx="3" ry="3" fill="#10b981" />
  <path d="M100 112 L104 116 L112 108" stroke="#ffffff" stroke-width="2" fill="none" stroke-linecap="round" stroke-linejoin="round" />
  <rect x="120" y="106" width="40" height="12" rx="2" ry="2" fill="#d1d5db" />
  
  <!-- Task 3 - Pending -->
  <rect x="96" y="128" width="16" height="16" rx="3" ry="3" fill="#ffffff" stroke="#9ca3af" stroke-width="2" />
  <rect x="120" y="130" width="44" height="12" rx="2" ry="2" fill="#4b5563" />
  
  <!-- Task 4 - Pending -->
  <rect x="96" y="152" width="16" height="16" rx="3" ry="3" fill="#ffffff" stroke="#9ca3af" stroke-width="2" />
  <rect x="120" y="154" width="36" height="12" rx="2" ry="2" fill="#4b5563" />
  
  <!-- Subtasks (indented) -->
  <!-- Subtask 1 -->
  <rect x="108" y="172" width="12" height="12" rx="2" ry="2" fill="#10b981" />
  <path d="M111 178 L114 181 L119 176" stroke="#ffffff" stroke-width="1.5" fill="none" stroke-linecap="round" stroke-linejoin="round" />
  <rect x="126" y="174" width="32" height="8" rx="1" ry="1" fill="#d1d5db" />
  
  <!-- Glass reflection effect -->
  <ellipse cx="100" cy="90" rx="20" ry="25" fill="#ffffff" opacity="0.2" />
  
  <!-- Outer glow -->
  <circle cx="128" cy="128" r="120" fill="none" stroke="#ffffff" stroke-width="2" opacity="0.3" filter="url(#glow)" />
</svg>