<svg width="512" height="512" viewBox="0 0 512 512" fill="none" xmlns="http://www.w3.org/2000/svg">
  <!-- Background circle with glass effect -->
  <circle cx="256" cy="256" r="240" fill="url(#glassGrad)" stroke="url(#borderGrad)" stroke-width="8"/>
  
  <!-- Document icon -->
  <path d="M186 128h100.5c4.5 0 8.8 1.8 12 5l52.5 52.5c3.2 3.2 5 7.5 5 12V384c0 13.3-10.7 24-24 24H186c-13.3 0-24-10.7-24-24V152c0-13.3 10.7-24 24-24z" 
        fill="white" stroke="rgba(255,255,255,0.3)" stroke-width="3" opacity="0.9"/>
  
  <!-- Document lines -->
  <line x1="210" y1="240" x2="310" y2="240" stroke="rgba(255,255,255,0.7)" stroke-width="6" stroke-linecap="round"/>
  <line x1="210" y1="280" x2="310" y2="280" stroke="rgba(255,255,255,0.7)" stroke-width="6" stroke-linecap="round"/>
  <line x1="210" y1="320" x2="280" y2="320" stroke="rgba(255,255,255,0.7)" stroke-width="6" stroke-linecap="round"/>
  
  <!-- Corner fold -->
  <path d="M286.5 128v52.5c0 4.5 3.6 8 8 8H347" 
        fill="none" stroke="rgba(255,255,255,0.4)" stroke-width="3"/>
  
  <!-- Gradients -->
  <defs>
    <radialGradient id="glassGrad" cx="30%" cy="30%">
      <stop offset="0%" stop-color="rgba(255,255,255,0.3)"/>
      <stop offset="70%" stop-color="rgba(255,255,255,0.1)"/>
      <stop offset="100%" stop-color="rgba(255,255,255,0.05)"/>
    </radialGradient>
    <linearGradient id="borderGrad" x1="0%" y1="0%" x2="100%" y2="100%">
      <stop offset="0%" stop-color="rgba(255,255,255,0.4)"/>
      <stop offset="100%" stop-color="rgba(255,255,255,0.1)"/>
    </linearGradient>
  </defs>
</svg>